<?xml version="1.0" encoding="UTF-8" standalone="no"?>
<!-- Created with Inkscape (http://www.inkscape.org/) -->
<svg
   xmlns:dc="http://purl.org/dc/elements/1.1/"
   xmlns:cc="http://web.resource.org/cc/"
   xmlns:rdf="http://www.w3.org/1999/02/22-rdf-syntax-ns#"
   xmlns:svg="http://www.w3.org/2000/svg"
   xmlns="http://www.w3.org/2000/svg"
   xmlns:sodipodi="http://sodipodi.sourceforge.net/DTD/sodipodi-0.dtd"
   xmlns:inkscape="http://www.inkscape.org/namespaces/inkscape"
   width="70.866142"
   height="70.866142"
   id="svg2"
   sodipodi:version="0.32"
   inkscape:version="0.46dev+devel"
   version="1.0"
   sodipodi:docname="Needle_valve.svg"
   inkscape:output_extension="org.inkscape.output.svg.inkscape">
  <defs
     id="defs4" />
  <sodipodi:namedview
     id="base"
     pagecolor="#ffffff"
     bordercolor="#666666"
     borderopacity="1.0"
     gridtolerance="10000"
     guidetolerance="10"
     objecttolerance="10"
     inkscape:pageopacity="0.0"
     inkscape:pageshadow="2"
     inkscape:zoom="7.9195959"
     inkscape:cx="67.039291"
     inkscape:cy="40.772263"
     inkscape:document-units="mm"
     inkscape:current-layer="layer1"
     width="20mm"
     height="20mm"
     units="mm"
     inkscape:window-width="1680"
     inkscape:window-height="1024"
     inkscape:window-x="0"
     inkscape:window-y="0">
    <inkscape:grid
       type="xygrid"
       id="grid2176"
       spacingx="1mm"
       spacingy="1mm"
       units="mm" />
  </sodipodi:namedview>
  <metadata
     id="metadata7">
    <rdf:RDF>
      <cc:Work
         rdf:about="">
        <dc:format>image/svg+xml</dc:format>
        <dc:type
           rdf:resource="http://purl.org/dc/dcmitype/StillImage" />
      </cc:Work>
    </rdf:RDF>
  </metadata>
  <g
     inkscape:label="Layer 1"
     inkscape:groupmode="layer"
     id="layer1">
    <g
       id="g2786">
      <path
         sodipodi:nodetypes="ccccc"
         id="path2178"
         d="M 18.154014,43.184056 L 18.154014,43.184056 L 18.154014,29.010827 L 52.722865,43.184056 L 52.722865,43.184056"
         style="fill:none;fill-rule:evenodd;stroke:#000000;stroke-width:1.06299213;stroke-linecap:butt;stroke-linejoin:miter;stroke-miterlimit:4;stroke-dasharray:none;stroke-opacity:1" />
      <path
         id="path2180"
         d="M 52.722865,43.184056 L 52.722865,29.010827 L 18.154014,43.184056"
         style="fill:none;fill-rule:evenodd;stroke:#000000;stroke-width:1.06299213;stroke-linecap:butt;stroke-linejoin:miter;stroke-miterlimit:4;stroke-dasharray:none;stroke-opacity:1" />
      <path
         id="path2878"
         d="M 35.438438,35.654528 C 31.895131,28.567914 31.895131,28.567914 31.895131,28.567914 C 38.981745,28.567914 38.981745,28.567914 38.981745,28.567914 C 35.438438,35.654528 35.613244,35.479722 35.438438,35.654528 z"
         style="color:#000000;fill:#ffffff;fill-opacity:1;fill-rule:nonzero;stroke:#000000;stroke-width:0.44291332;stroke-linecap:butt;stroke-linejoin:miter;marker:none;marker-start:none;marker-mid:none;marker-end:none;stroke-miterlimit:4;stroke-dasharray:none;stroke-dashoffset:0;stroke-opacity:1;visibility:visible;display:inline;overflow:visible;enable-background:accumulate" />
      <path
         id="path2880"
         d="M 33.976617,32.109776 C 33.160603,30.474035 32.492955,29.107606 32.492955,29.073265 C 32.492955,29.03892 33.853277,29.010828 35.515887,29.010828 L 38.538832,29.010828 L 37.185657,31.769365 C 36.441414,33.286554 35.748753,34.652984 35.646386,34.805872 C 35.469054,35.070744 35.390325,34.943633 33.976617,32.109775 L 33.976617,32.109776 z"
         style="fill:#000000;fill-opacity:1;stroke:#000000;stroke-width:1.06299213;stroke-miterlimit:4;stroke-dasharray:none;stroke-dashoffset:0;stroke-opacity:1" />
      <path
         id="path2782"
         d="M 18.804507,36.094083 L 18.804507,29.913711 L 19.214881,30.08475 C 19.440587,30.178823 22.793031,31.554086 26.664756,33.140891 C 30.536482,34.727691 33.704257,36.059609 33.704257,36.100697 C 33.704257,36.141788 31.50244,37.076435 28.81133,38.177693 C 26.120221,39.278954 22.767777,40.651239 21.361455,41.227218 L 18.804507,42.274454 L 18.804507,36.094083 z"
         style="opacity:1;fill:#ffffff;fill-opacity:1;stroke:#ffffff;stroke-width:0.13422303;stroke-linecap:square;stroke-miterlimit:4;stroke-dasharray:none;stroke-dashoffset:0;stroke-opacity:1" />
      <path
         id="path2784"
         d="M 44.598133,39.22251 C 40.485095,37.542211 37.119179,36.139011 37.11832,36.104287 C 37.116375,36.025807 52.044965,29.906711 52.101193,29.962938 C 52.123618,29.985364 52.127217,32.765334 52.109186,36.140654 L 52.076406,42.277599 L 44.598133,39.22251 z"
         style="opacity:1;fill:#ffffff;fill-opacity:1;stroke:#ffffff;stroke-width:0.13422303;stroke-linecap:square;stroke-miterlimit:4;stroke-dasharray:none;stroke-dashoffset:0;stroke-opacity:1" />
    </g>
  </g>
</svg>
